<?xml version="1.0" encoding="utf-8"?>
<!-- Generator: Adobe Illustrator 26.0.0, SVG Export Plug-In . SVG Version: 6.00 Build 0)  -->
<svg version="1.1" id="Capa_1" xmlns="http://www.w3.org/2000/svg" xmlns:xlink="http://www.w3.org/1999/xlink" x="0px" y="0px"
	 viewBox="0 0 100 100" style="enable-background:new 0 0 100 100;" xml:space="preserve">
<style type="text/css">
	.st0{fill:#FFFFFF;}
</style>
<g>
	<g transform="scale(5.12,5.12)">
		<path class="st0" d="M9.8,1.6c-4.9,0-9,3.5-9,7.8c0,2.5,1.4,4.7,3.5,6.1c0,0.1,0,0.2-0.1,0.6c-0.1,0.5-0.4,1.2-1,2l-0.4,0.6l0.7,0
			c2.4,0,3.8-1.6,4-1.8c0.7,0.2,1.5,0.3,2.2,0.3c4.9,0,9-3.5,9-7.8S14.7,1.6,9.8,1.6z M9.8,2.3c4.6,0,8.2,3.2,8.2,7.1
			s-3.7,7.1-8.2,7.1c-0.8,0-1.5-0.1-2.3-0.3l-0.2,0l-0.1,0.2c0,0-1.1,1.3-2.9,1.6c0.3-0.6,0.6-1.1,0.7-1.5c0.2-0.6,0.2-1,0.2-1v-0.2
			l-0.2-0.1c-2-1.3-3.3-3.4-3.3-5.7C1.5,5.5,5.2,2.3,9.8,2.3z"/>
	</g>
</g>
</svg>
